<svg width="32" height="24" viewBox="0 0 32 24" fill="none" xmlns="http://www.w3.org/2000/svg"><g clip-path="url(#clip0_1230_32855)"><path d="M16.7866 16.4379C16.1562 15.6091 15.6799 14.6795 15.3794 13.6911C15.5344 12.3235 15.8088 9.93598 16.0473 8.67268C16.2381 7.58323 14.6401 6.62126 13.4953 6.51695C13.126 6.49435 12.7555 6.49435 12.3862 6.51695H11.79C11.044 6.55116 10.3203 6.77495 9.69115 7.16598C8.89218 7.66435 7.72364 8.40612 6.97236 8.91608C6.56713 9.20945 6.26014 9.61266 6.08993 10.0751L5.35058 12.1033C5.29343 12.247 5.26628 12.4003 5.27081 12.5543C5.27534 12.7083 5.31142 12.8599 5.37693 13.0002C5.44244 13.1405 5.53607 13.2667 5.65235 13.3714C5.76862 13.4761 5.9052 13.5572 6.05412 13.61L6.72184 13.865C6.87319 13.9255 7.0358 13.9552 7.19945 13.9521C7.3631 13.9489 7.52435 13.9131 7.67313 13.8468C7.82191 13.7805 7.95507 13.6851 8.06428 13.5666C8.17349 13.4481 8.25645 13.309 8.30796 13.158C8.53453 12.5901 8.773 11.999 8.8684 11.7092C8.8684 11.7092 10.4901 10.8748 10.7525 10.7473C10.5021 11.9063 10.1921 12.0222 9.96555 13.3898C9.90286 13.748 9.93086 14.1157 10.0472 14.461C10.1636 14.8063 10.3647 15.1189 10.6333 15.3717C11.3607 16.0787 12.8991 17.5274 13.4953 18.0953C13.6503 18.2414 13.7616 18.4257 13.8173 18.6284C13.9962 19.2891 14.4373 20.8537 14.7712 22.1054C14.8083 22.2593 14.8774 22.4042 14.9743 22.5312C15.0711 22.6582 15.1938 22.7646 15.3346 22.8439C15.4753 22.9231 15.6311 22.9736 15.7927 22.9921C15.9542 23.0106 16.1179 22.9968 16.2738 22.9515L17.6929 22.5922C17.8484 22.557 17.995 22.4919 18.1241 22.4006C18.2532 22.3093 18.3621 22.1938 18.4444 22.0609C18.5266 21.9279 18.5807 21.7803 18.6032 21.6267C18.6257 21.4731 18.6162 21.3166 18.5754 21.1666C18.2118 19.5162 17.6096 17.9242 16.7866 16.4379Z" fill="#FFFC00"></path><path d="M10.0728 12.845C9.41695 14.5372 8.28407 16.9942 7.98595 17.6317C7.935 17.7294 7.87511 17.8225 7.80704 17.9098L5.93488 20.0308C5.72717 20.2579 5.61954 20.5552 5.63516 20.8587C5.65077 21.1622 5.7883 21.4476 6.01829 21.6534L6.90073 22.4879C7.01179 22.5983 7.14444 22.686 7.29086 22.7459C7.43727 22.8057 7.59447 22.8366 7.75333 22.8366C7.91218 22.8366 8.06953 22.8057 8.21595 22.7459C8.36236 22.686 8.49501 22.5983 8.60607 22.4879L10.8122 20.3785C10.8744 20.3101 10.9303 20.2364 10.9791 20.1583L13.0899 16.9363C13.3045 16.5886 10.8241 10.8863 10.0728 12.845Z" fill="#FFFC00"></path><path d="M18.8138 10.5388L15.606 7.58337L15.3318 11.4544C15.3318 11.9644 16.858 13.1697 17.4424 13.5986C17.587 13.7031 17.7542 13.7745 17.9313 13.8072L19.7081 14.1781C19.8718 14.2169 20.0421 14.2217 20.2077 14.1919C20.3734 14.1622 20.5306 14.0987 20.6692 14.0057C20.8078 13.9126 20.9245 13.792 21.0117 13.6519C21.0989 13.5119 21.1544 13.3554 21.1749 13.1929L21.3062 12.37C21.3335 12.2193 21.3299 12.0647 21.2954 11.9154C21.261 11.766 21.1964 11.6247 21.1055 11.4997C21.0145 11.3747 20.8991 11.2685 20.7657 11.1871C20.6323 11.1057 20.4836 11.0508 20.3283 11.0256L19.41 10.8517C19.1843 10.8057 18.9772 10.697 18.8138 10.5388Z" fill="#FFFC00"></path><path d="M13.5437 5.75673C14.8572 5.75673 15.9221 4.6919 15.9221 3.37836C15.9221 2.06483 14.8572 1 13.5437 1C12.2302 1 11.1653 2.06483 11.1653 3.37836C11.1653 4.6919 12.2302 5.75673 13.5437 5.75673Z" fill="#FFFC00"></path><path d="M25.5789 20.4207C25.235 19.9686 24.9752 19.4616 24.8113 18.9224C24.8958 18.1765 25.0455 16.8742 25.1756 16.1851C25.2796 15.5909 24.408 15.0661 23.7836 15.0092C23.5822 14.9969 23.3801 14.9969 23.1786 15.0092H22.8534C22.4465 15.0279 22.0518 15.15 21.7086 15.3633C21.2728 15.6351 20.6354 16.0397 20.2256 16.3179C20.0046 16.4779 19.8371 16.6978 19.7443 16.95L19.341 18.0564C19.3098 18.1347 19.295 18.2184 19.2975 18.3024C19.3 18.3864 19.3197 18.469 19.3554 18.5456C19.3911 18.6221 19.4422 18.6909 19.5056 18.748C19.569 18.8051 19.6435 18.8494 19.7248 18.8782L20.089 19.0173C20.1715 19.0503 20.2602 19.0665 20.3495 19.0648C20.4388 19.0631 20.5267 19.0435 20.6079 19.0073C20.689 18.9712 20.7616 18.9191 20.8212 18.8545C20.8808 18.7899 20.926 18.714 20.9541 18.6316C21.0777 18.3219 21.2078 17.9994 21.2598 17.8414C21.2598 17.8414 22.1444 17.3862 22.2875 17.3167C22.1509 17.9489 21.9819 18.0121 21.8583 18.7581C21.8241 18.9535 21.8394 19.154 21.9028 19.3424C21.9663 19.5307 22.076 19.7012 22.2225 19.8391C22.6193 20.2247 23.4584 21.0149 23.7836 21.3247C23.8681 21.4044 23.9289 21.5049 23.9592 21.6155C24.0568 21.9759 24.2974 22.8293 24.4795 23.512C24.4998 23.596 24.5375 23.675 24.5903 23.7443C24.6431 23.8136 24.7101 23.8716 24.7868 23.9148C24.8636 23.9581 24.9486 23.9856 25.0367 23.9957C25.1248 24.0058 25.2141 23.9982 25.2991 23.9735L26.0732 23.7776C26.158 23.7584 26.238 23.7228 26.3084 23.6731C26.3788 23.6233 26.4382 23.5603 26.4831 23.4877C26.528 23.4152 26.5574 23.3347 26.5697 23.2509C26.582 23.1671 26.5768 23.0818 26.5545 23C26.3563 22.0998 26.0278 21.2314 25.5789 20.4207Z" fill="#FFFC00"></path><path d="M21.9168 18.461C21.5591 19.384 20.9411 20.7242 20.7785 21.0719C20.7507 21.1252 20.7181 21.176 20.6809 21.2236L19.6598 22.3805C19.5465 22.5044 19.4877 22.6665 19.4963 22.8321C19.5048 22.9976 19.5798 23.1533 19.7052 23.2655L20.1866 23.7207C20.2472 23.7809 20.3195 23.8288 20.3994 23.8614C20.4792 23.8941 20.565 23.9109 20.6516 23.9109C20.7383 23.9109 20.8241 23.8941 20.904 23.8614C20.9838 23.8288 21.0562 23.7809 21.1168 23.7207L22.3201 22.5701C22.354 22.5328 22.3845 22.4926 22.4112 22.45L23.5625 20.6926C23.6796 20.5029 22.3266 17.3926 21.9168 18.461Z" fill="#FFFC00"></path><path d="M26.6846 17.203L24.9349 15.5909L24.7853 17.7024C24.7853 17.9806 25.6178 18.638 25.9365 18.872C26.0154 18.929 26.1067 18.9679 26.2033 18.9857L27.1724 19.188C27.2617 19.2092 27.3546 19.2118 27.4449 19.1956C27.5353 19.1794 27.621 19.1448 27.6966 19.094C27.7722 19.0432 27.8359 18.9775 27.8835 18.9011C27.931 18.8247 27.9613 18.7393 27.9725 18.6507L28.0441 18.2018C28.059 18.1196 28.057 18.0353 28.0382 17.9538C28.0194 17.8724 27.9842 17.7953 27.9346 17.7271C27.885 17.6589 27.822 17.601 27.7493 17.5566C27.6765 17.5122 27.5954 17.4823 27.5107 17.4685L27.0098 17.3737C26.8867 17.3486 26.7737 17.2893 26.6846 17.203Z" fill="#FFFC00"></path><path d="M23.81 14.5946C24.5265 14.5946 25.1073 14.0138 25.1073 13.2973C25.1073 12.5808 24.5265 12 23.81 12C23.0935 12 22.5127 12.5808 22.5127 13.2973C22.5127 14.0138 23.0935 14.5946 23.81 14.5946Z" fill="#FFFC00"></path></g><defs><clipPath id="clip0_1230_32855"><rect width="30" height="24" fill="white" transform="translate(0.5)"></rect></clipPath></defs></svg>